<?xml version="1.0" encoding="iso-8859-1"?>

<!DOCTYPE svg PUBLIC "-//W3C//DTD SVG 1.1//EN" "http://www.w3.org/Graphics/SVG/1.1/DTD/svg11.dtd">
<!-- Uploaded to: SVG Repo, www.svgrepo.com, Generator: SVG Repo Mixer Tools -->
<svg height="800px" width="800px" version="1.1" id="_x34_" xmlns="http://www.w3.org/2000/svg" xmlns:xlink="http://www.w3.org/1999/xlink" 
	 viewBox="0 0 512 512"  xml:space="preserve">
<g>
	<linearGradient id="SVGID_1_" gradientUnits="userSpaceOnUse" x1="212.7221" y1="120.8568" x2="343.0364" y2="278.1326">
		<stop  offset="0" style="stop-color:#D8687B"/>
		<stop  offset="0.9855" style="stop-color:#B5242A"/>
	</linearGradient>
	<path style="fill:url(#SVGID_1_);" d="M506.937,103.598c0-0.279-0.07-0.559-0.14-0.839c-3.43,3.08-7.21,5.949-11.27,8.61
		c-1.54,1.051-3.15,2.03-4.83,2.941c-2.73,1.61-5.67,3.148-8.68,4.479c-4.2,1.96-8.61,3.64-13.16,5.11
		c-2.73,0.911-5.53,1.68-8.4,2.381c-1.33,0.28-2.66,0.629-3.99,0.909c-2.52,0.491-5.11,0.909-7.7,1.26
		c-1.68,0-10.01-37.24-11.62-37.24c-5.67,0.631-10.15,0.14-14.49,0.072h-1.33c-2.38,0-4.69,0.14-7.21,0.699
		c-1.54,0.35-3.15,0.841-4.83,1.54c-0.49,0.21-0.91,0.42-1.47,0.631c-0.07,0-0.07,0-0.14,0.07l-0.07,0.07
		c-6.79,3.29-15.26,10.079-27.58,23.729c-0.91,1.121-1.89,2.24-2.87,3.291c-0.77,0.839-1.54,1.61-2.38,2.449
		c-0.07,0.07-0.14,0.14-0.21,0.21c-6.58,6.299-14.56,11.759-23.8,16.03c-5.39,2.519-11.2,4.619-17.29,6.159
		c-2.66,0.701-5.39,1.33-8.19,1.82c-2.66,0.49-5.32,0.841-8.05,1.119l-0.42,0.072c-8.26,0.909-16.38,0.769-24.08-0.14
		c-2.94-0.28-5.74-0.771-8.54-1.331c-5.39-1.119-10.57-2.589-15.4-4.479c0,0-7.49,5.11-14.98,10.15
		c-7.42,5.04-14.91,10.15-14.91,10.15l-11.34,7.911h-0.07l-43.26,29.82v0.07l-3.43,2.379h-0.07l-0.07,0.07l-0.56,0.35l-47.11,32.479
		l-0.28,0.212l-2.59,1.818l-0.07,0.07L51.52,299.318c0.07,0.07,0.14,0.07,0.21,0.138c0.14,0.14,0.35,0.28,0.49,0.42
		c0.14,0.07,0.21,0.14,0.35,0.21c0.28,0.21,0.56,0.42,0.91,0.631c0.35,0.28,0.77,0.489,1.12,0.841c0.14,0.068,0.28,0.138,0.42,0.279
		c0.14,0.07,0.21,0.14,0.35,0.21c1.19,0.841,2.45,1.75,3.71,2.659c0.07,0.072,0.14,0.14,0.21,0.14c0.28,0.212,0.49,0.35,0.7,0.491
		c0.56,0.42,1.12,0.771,1.61,1.119c1.68,1.121,3.29,2.17,4.9,3.221c10.85,7.14,22.19,13.65,33.88,19.528
		c0.07,0,0.07,0.072,0.21,0.072c59.29,30.098,129.01,45.64,200.339,46.549c3.92,0.07,7.84,0.07,11.76,0c0.07,0.07,0.07,0.07,0.07,0
		h0.07c5.6,0,11.13-0.21,16.8-0.42c1.96-0.07,3.92-0.21,5.95-0.28c1.54-0.068,3.22-0.208,4.76-0.28h0.28
		c12.53-0.839,25.13-2.099,37.66-3.779h0.07c6.93-0.981,13.79-2.03,20.72-3.221c2.52-0.489,5.04-0.909,7.56-1.4
		c5.88-1.119,11.69-2.379,17.43-3.638C495.037,295.328,524.787,196.768,506.937,103.598z"/>
	<g>
		<g>
			<path style="fill:#E95D63;" d="M412.004,226.891l0.759-4.332c-0.922,0.492-1.849,0.967-2.769,1.468L412.004,226.891z"/>
			<path style="fill:#E95D63;" d="M424.057,362.808c-6.93,6.579-14.28,12.879-21.98,18.898c-3.5,2.731-7.07,5.322-10.78,7.911
				c-12.46,8.75-25.41,16.311-38.64,22.82c-3.08,1.47-6.23,2.939-9.38,4.341c-84.98,37.729-182.419,30.589-260.398-15.822
				C56,384.997,31.5,364.346,10.5,339.217v-0.07c-0.98-1.119-1.82-2.1-2.73-3.15c-1.47-1.89-2.94-3.78-4.41-5.67
				c-1.12-1.47-2.24-2.871-3.36-4.409l4.62-3.221l5.6-3.919h0.07l0.14-0.14h0.07c1.68,2.239,3.36,4.409,5.04,6.58
				c0.28,0.42,0.56,0.769,0.84,1.119c0.07,0.07,0.07,0.07,0.14,0.14l0.07,0.07c0,0.07,0.07,0.07,0.07,0.07
				c0,0.07,0.07,0.14,0.14,0.21c0.21,0.21,0.49,0.491,0.7,0.769c1.05,1.471,2.24,2.871,3.43,4.271c2.52,3.01,5.11,5.951,7.77,8.82
				c2.8,3.08,5.67,6.091,8.61,9.03c2.59,2.591,5.25,5.11,7.91,7.489c2.8,2.591,5.67,5.112,8.54,7.561
				c0.49,0.42,0.98,0.841,1.4,1.189c2.52,2.03,5.04,4.131,7.63,6.091c6.37,4.9,12.88,9.451,19.53,13.72
				c1.12,0.771,2.31,1.47,3.5,2.24c0.63,0.35,1.12,0.699,1.68,0.979c11.76,7.14,23.94,13.301,36.47,18.481
				c0.98,0.42,1.96,0.841,2.94,1.259c0.07,0,0.07,0,0.07,0c2.1,0.841,4.2,1.68,6.37,2.451c2.24,0.839,4.48,1.68,6.79,2.449
				c11.69,4.061,23.66,7.21,35.84,9.591c0.42,0.14,0.77,0.21,1.12,0.28c0.7,0.14,1.4,0.28,2.17,0.349
				c1.33,0.28,2.66,0.491,3.99,0.701c0.84,0.21,1.82,0.35,2.73,0.49c2.52,0.419,5.11,0.771,7.77,1.119
				c2.17,0.28,4.34,0.49,6.51,0.771c2.73,0.279,5.39,0.491,8.12,0.699c4.13,0.28,8.19,0.491,12.39,0.631c0.35,0,0.77,0.07,1.19,0.07
				c1.89,0,3.85,0.07,5.81,0.07c1.89,0,3.78,0,5.74-0.07c1.4,0,2.8-0.07,4.2-0.07c0.28,0,0.63-0.07,0.91-0.07
				c0.91,0,1.75-0.07,2.66-0.07c0.35,0,0.7-0.07,0.98-0.07c1.68-0.07,3.29-0.21,4.83-0.28c0.56-0.07,1.05-0.07,1.61-0.14
				c1.19-0.068,2.45-0.208,3.64-0.28c0.84-0.068,1.61-0.14,2.45-0.279c2.38-0.21,4.76-0.42,7.14-0.771
				c6.44-0.769,12.88-1.82,19.25-3.08c4.97-0.981,9.94-2.1,14.84-3.43c1.4-0.35,2.87-0.701,4.34-1.119
				c1.47-0.42,3.01-0.771,4.48-1.331c0.07,0.07,0.21,0,0.35-0.07c1.47-0.42,2.94-0.839,4.41-1.33c0.7-0.21,1.4-0.42,2.17-0.701
				c0.98-0.28,1.96-0.559,2.94-0.909c0.84-0.28,1.75-0.631,2.59-0.909c0.91-0.35,1.82-0.631,2.73-0.981
				c0.98-0.35,1.89-0.701,2.87-1.049c1.47-0.56,2.87-1.121,4.34-1.682c2.94-1.119,5.81-2.309,8.68-3.568c0,0,0.07,0,0.07-0.07
				c1.26-0.491,2.45-1.051,3.71-1.612c0.42-0.208,0.91-0.419,1.33-0.629c1.12-0.491,2.24-1.049,3.43-1.54
				c0.14-0.07,0.21-0.14,0.35-0.21c0.84-0.35,1.68-0.769,2.45-1.189c0.56-0.21,1.05-0.491,1.61-0.771c1.4-0.699,2.8-1.47,4.27-2.17
				c1.19-0.629,2.31-1.189,3.5-1.888c0.77-0.42,1.54-0.841,2.31-1.331c4.97-2.659,9.94-5.6,14.77-8.68
				c0.77-0.489,1.47-0.909,2.24-1.47c0.84-0.49,1.68-1.049,2.52-1.61c0.91-0.56,1.82-1.261,2.73-1.89
				c0.98-0.631,1.89-1.259,2.8-1.89c3.71-2.591,7.35-5.32,10.92-8.119c1.33-1.051,2.73-2.1,4.06-3.15c0,0,0-0.072,0.07-0.072
				c0.56-0.489,1.19-0.979,1.75-1.4c2.38-1.96,4.62-3.919,6.86-5.879c1.82-1.612,3.57-3.221,5.32-4.831
				c4.06-3.708,7.91-7.559,11.62-11.479c2.73-2.801,5.39-5.67,7.91-8.61c0.91-1.051,1.75-2.03,2.59-3.079
				c9.52-11.131,17.92-22.89,25.34-35.21c0.42-0.631,0.77-1.189,1.05-1.82c0.91-1.47,1.82-3.01,2.66-4.551
				c0.49-0.839,0.98-1.678,1.4-2.449c1.47-2.729,2.94-5.46,4.34-8.191c0.7-1.4,1.4-2.869,2.1-4.269c1.12-2.17,2.1-4.409,3.08-6.58
				c4.9-10.64,9.03-21.63,12.39-32.761c0.07-0.28,0.21-0.629,0.28-0.979c0.28-0.979,0.63-1.96,0.91-3.009
				c1.68-5.811,3.15-11.621,4.41-17.5c0.21-0.911,0.42-1.82,0.56-2.731c0.14-0.56,0.28-1.049,0.35-1.54
				c0.21-0.979,0.42-1.96,0.63-2.939c0.56-3.01,1.05-6.021,1.54-9.03c0.7-4.689,1.33-9.38,1.82-14.07
				c0.28-2.519,0.49-5.04,0.7-7.629c0.07-1.401,0.21-2.871,0.28-4.341c0.07-1.33,0.14-2.591,0.21-3.92v-1.61
				c0.14-2.24,0.21-4.481,0.21-6.72c0.07-0.35,0.07-0.701,0-1.049c0.044-1.504,0.012-3.028,0-4.551c-0.006-0.89,0.026-1.782,0-2.661
				v-0.909c-0.07-3.009-0.14-6.019-0.35-9.03c-0.14-3.08-0.35-6.229-0.7-9.379c-0.07-0.942-0.196-1.883-0.282-2.825
				c-0.069-0.901-0.139-1.735-0.277-2.635c-0.07-0.981-0.14-1.96-0.28-2.941c-0.14-0.979-0.21-2.03-0.42-3.079
				c-0.21-1.68-0.42-3.43-0.7-5.18c-0.28-1.68-0.56-3.43-0.84-5.11c-0.35-2.17-0.7-4.339-1.19-6.439
				c-0.07-0.631-0.21-1.191-0.35-1.75c-0.49-2.731-1.05-5.39-1.75-8.051c-0.56-2.519-1.19-5.04-1.89-7.489
				c-1.26-4.901-2.73-9.731-4.27-14.561c-0.21-0.631-0.49-1.33-0.7-1.96c-0.07-0.28-0.14-0.559-0.28-0.771
				c-0.42-1.47-0.91-2.869-1.47-4.269c-0.63-1.96-1.4-3.92-2.17-5.881c-1.4-3.71-2.87-7.35-4.48-10.99
				c-0.49-1.119-1.05-2.309-1.54-3.5c-0.07-0.068-0.14-0.208-0.14-0.279c-0.35-0.841-0.77-1.61-1.12-2.451
				c-3.01-6.509-6.3-12.809-9.87-19.11c-0.42-0.771-0.84-1.47-1.26-2.24c-0.14-0.208-0.28-0.349-0.35-0.559
				c-0.77-1.4-1.61-2.731-2.45-4.131c-0.91-1.54-1.89-3.08-2.87-4.619c-1.12-1.68-2.17-3.362-3.22-4.971V7.28l1.12-0.771l1.47-0.979
				l7.63-5.39l0.14-0.14c0.84,1.119,1.61,2.311,2.38,3.5c0.63,1.119,1.33,2.239,2.03,3.29c0,0.07,0.07,0.14,0.07,0.14
				c0.14,0.14,0.21,0.279,0.35,0.49l0.49,0.769l0.56,0.981l0.91,1.538c0.7,1.191,1.47,2.381,2.17,3.572
				c3.29,5.669,6.37,11.339,9.17,17.15c11.41,22.96,19.39,46.969,24.15,71.329c0.07,0.28,0.14,0.561,0.14,0.839
				C524.787,196.768,495.037,295.328,424.057,362.808z"/>
			<path style="fill:#E95D63;" d="M454.131,7.323c81.129,122.037,50.527,287.207-70.129,371.868
				C263.364,463.84,97.634,436.43,10.473,318.625l30.141-21.149c75.367,100.996,218.421,124.447,322.251,51.592
				c103.848-72.867,130.459-215.367,61.124-320.596L454.131,7.323z"/>
			<path style="fill:#E95D63;" d="M466.757,202.438c-11.83,62.579-46.97,117.109-99.049,153.579c-10.29,7.21-21,13.579-32.13,19.11
				c-44.87,22.121-95.549,29.82-145.949,21.771c-57.189-9.24-108.289-37.869-145.529-81.339c-1.19-1.331-2.38-2.731-3.5-4.131
				c-2.38-2.941-4.69-5.881-7-8.89l-0.07-0.07v-0.07l2.59-1.82l4.48-3.08l9.73-6.86l14-9.801l65.66-46.059l47.39-33.181l0.14-0.14
				c0.63,0.42,1.19,0.841,1.82,1.261c0.21,0.21,0.49,0.35,0.7,0.489c0.14,0.072,0.21,0.14,0.35,0.212c0,0,0.07,0,0.07,0.068
				c0.07,0.072,0.14,0.14,0.28,0.21h0.07c0.49,0.35,0.56,0.35,2.8,1.68l2.17,1.191c0.35,0.21,0.7,0.35,1.05,0.559
				c0.07,0,0.14,0.07,0.21,0.07c0.42,0.21,0.84,0.35,1.19,0.561c0.98,0.49,1.96,0.911,3.01,1.33c0.91,0.42,1.82,0.701,2.8,1.051
				c0.07,0,0.14,0,0.21,0.068h0.07c2.8,0.911,5.6,1.612,8.54,2.102c2.87,0.559,5.74,0.839,8.75,0.909
				c4.2,0.14,8.33-0.21,12.319-0.909c14.91-2.521,28-10.64,37.1-22.121c0.07-0.07,0.07-0.07,0.14-0.14
				c5.95,5.67,12.81,10.29,20.51,13.511c1.89,0.839,3.85,1.61,5.88,2.169c2.66,0.841,5.46,1.54,8.33,2.03
				c3.36,0.631,6.86,1.051,10.36,1.119c2.94,0.07,5.81,0,8.68-0.349c33.95-3.151,60.97-31.291,61.88-66.291
				c0.21-6.369-0.56-12.598-2.03-18.479c-1.4-5.6-3.5-10.85-6.16-15.75c22.68-7.911,39.969-27.369,44.66-51.52
				c0.49-2.379,0.84-4.83,1.05-7.349c0.14-1.33,0.21-2.661,0.28-4.061v-1.61c0-2.731-0.14-5.39-0.49-8.049v-0.072l9.87-6.86
				l7.07-4.97l0.07,0.07c1.05,1.68,2.1,3.29,3.08,4.9c0.98,1.61,1.96,3.151,2.87,4.691c0.91,1.54,1.82,3.15,2.73,4.689
				c15.12,26.81,24.92,55.93,29.05,86.03C472.357,149.658,471.727,176.118,466.757,202.438z"/>
			<path style="fill:#E95D63;" d="M462.487,159.389c0,0.42,0,0.769-0.07,1.189c0,2.24-0.07,4.619-0.21,6.93v0.839
				c-0.49,10.011-1.61,20.021-3.36,29.962c-0.28,1.61-0.63,3.22-0.91,4.83c0,0.068,0,0.068-0.07,0.068
				c-0.07,0.631-0.21,1.191-0.35,1.75c-0.21,1.051-0.42,2.102-0.63,3.151c-0.28,1.189-0.56,2.379-0.84,3.57
				c-0.07,0.419-0.21,0.909-0.28,1.33c-0.35,1.33-0.7,2.661-1.05,3.99c-0.14,0.42-0.21,0.909-0.35,1.329
				c-0.84,3.08-1.75,6.159-2.66,9.241c-0.49,1.61-1.05,3.22-1.54,4.759c-0.77,2.311-1.61,4.549-2.45,6.79
				c-0.28,0.911-0.63,1.82-0.98,2.729c-0.21,0.561-0.42,1.191-0.7,1.75c-0.7,1.822-1.47,3.572-2.24,5.39
				c-0.56,1.401-1.19,2.801-1.82,4.201c-0.63,1.4-1.26,2.731-1.89,4.131c-0.7,1.54-1.47,3.079-2.24,4.619
				c-0.77,1.47-1.47,2.939-2.31,4.481c-1.05,2.029-2.1,3.989-3.22,5.949c-1.12,1.96-2.24,3.92-3.43,5.881
				c-0.77,1.329-1.54,2.659-2.38,3.989c-1.05,1.542-2.03,3.081-3.01,4.621c-1.05,1.54-2.03,3.009-3.08,4.549
				c-1.19,1.75-2.45,3.43-3.71,5.11c-1.26,1.75-2.52,3.43-3.85,5.11c-1.19,1.542-2.38,3.011-3.64,4.551
				c-1.47,1.75-2.94,3.5-4.48,5.25c-1.54,1.75-3.08,3.43-4.62,5.18c-1.26,1.4-2.59,2.729-3.92,4.061
				c-0.84,0.839-1.61,1.678-2.45,2.519c-0.84,0.841-1.68,1.68-2.52,2.451c-1.12,1.119-2.31,2.239-3.5,3.29
				c-0.21,0.21-0.42,0.419-0.63,0.631c-0.42,0.419-0.84,0.839-1.33,1.189c-1.05,0.979-2.1,1.958-3.22,2.939
				c-0.63,0.561-1.33,1.121-1.96,1.68c-0.91,0.771-1.82,1.54-2.8,2.311c-1.47,1.189-2.87,2.381-4.41,3.57
				c-3.36,2.659-6.93,5.32-10.5,7.839c-2.8,1.96-5.67,3.92-8.54,5.67c-4.48,2.939-9.03,5.6-13.58,8.051
				c-3.85,2.169-7.7,4.129-11.62,5.949c-2.66,1.259-5.32,2.521-7.98,3.64c-2.24,0.979-4.48,1.89-6.79,2.799
				c-0.49,0.21-1.05,0.42-1.54,0.631h-0.07c-1.26,0.491-2.52,0.981-3.78,1.4c-2.38,0.911-4.83,1.75-7.21,2.521
				c-2.31,0.769-4.55,1.47-6.86,2.17h-0.07c-2.94,0.909-5.95,1.75-8.96,2.449c-2.38,0.631-4.69,1.191-7.07,1.68
				c-5.32,1.189-10.64,2.17-15.96,2.939c-2.52,0.42-5.04,0.701-7.56,0.981c-0.35,0.07-0.77,0.14-1.12,0.14
				c-2.17,0.28-4.27,0.42-6.44,0.629c-2.24,0.21-4.48,0.35-6.72,0.42c-1.68,0.14-3.43,0.21-5.18,0.21
				c-4.48,0.21-8.89,0.21-13.37,0.07c-1.61-0.07-3.22-0.14-4.76-0.21c-0.56,0-1.19-0.07-1.75-0.07c-0.14,0-0.28,0-0.35-0.07
				c-1.75-0.07-3.5-0.21-5.18-0.35c-0.56,0-1.12-0.068-1.68-0.068c-0.07,0-0.07,0-0.14,0c-0.77-0.072-1.54-0.14-2.31-0.28
				c-0.42,0-0.91,0-1.33-0.07c-0.21,0-0.35-0.07-0.56-0.07c-1.96-0.21-3.99-0.42-5.95-0.701c-0.21,0-0.35-0.07-0.56-0.07
				c-1.54-0.21-3.15-0.419-4.62-0.699c-0.56-0.072-1.12-0.14-1.68-0.21h-0.07c-1.61-0.28-3.15-0.561-4.69-0.841
				c-0.07,0-0.14,0-0.28-0.07c-1.47-0.21-2.94-0.489-4.48-0.839c-0.28,0-0.63-0.07-0.91-0.14c-1.26-0.28-2.59-0.561-3.85-0.841
				c-0.49-0.14-0.91-0.21-1.4-0.35h-0.07c-0.56-0.14-1.19-0.28-1.75-0.419c-1.82-0.42-3.57-0.841-5.39-1.331
				c-0.56-0.14-1.19-0.349-1.82-0.489c-0.77-0.21-1.47-0.42-2.24-0.631c-0.56-0.14-1.19-0.35-1.82-0.491
				c-1.47-0.42-2.94-0.839-4.41-1.33c-0.35-0.14-0.7-0.21-1.05-0.35c-1.54-0.491-3.15-0.979-4.69-1.54
				c-1.61-0.561-3.22-1.049-4.76-1.68c-0.7-0.21-1.33-0.419-2.03-0.699c-0.84-0.28-1.61-0.631-2.45-0.981
				c-0.91-0.35-1.82-0.701-2.66-1.049c-0.28-0.07-0.49-0.21-0.77-0.28c-0.98-0.35-1.89-0.771-2.8-1.189
				c-1.12-0.42-2.24-0.911-3.29-1.401c-1.54-0.629-3.08-1.33-4.62-2.099c-1.82-0.841-3.64-1.682-5.46-2.591
				c-1.47-0.701-2.87-1.47-4.27-2.17c-0.14-0.07-0.28-0.14-0.35-0.208c-0.7-0.352-1.33-0.701-1.96-1.051
				c-3.36-1.82-6.72-3.71-10.01-5.67c-0.77-0.49-1.54-0.909-2.31-1.47c-0.35-0.21-0.63-0.35-0.98-0.559
				c-0.63-0.352-1.26-0.771-1.89-1.121c-0.28-0.14-0.49-0.35-0.77-0.561c-1.12-0.699-2.31-1.47-3.43-2.239
				c-0.07,0-0.07-0.07-0.14-0.07c-1.47-1.051-2.94-1.96-4.34-3.009c-0.63-0.42-1.19-0.841-1.82-1.261
				c-0.14-0.14-0.28-0.21-0.42-0.35c-1.19-0.839-2.38-1.75-3.57-2.659c-2.17-1.61-4.34-3.29-6.51-4.97
				c-1.19-1.051-2.38-2.03-3.57-3.01c-1.33-1.051-2.59-2.17-3.85-3.291c-1.68-1.47-3.43-3.01-5.04-4.549
				c-0.14-0.14-0.21-0.21-0.35-0.35c-0.91-0.839-1.89-1.75-2.8-2.589c-0.56-0.561-1.12-1.121-1.68-1.682
				c-1.05-1.049-2.1-2.029-3.08-3.15h-0.07c-0.77-0.839-1.54-1.61-2.31-2.449c-1.12-1.189-2.24-2.381-3.36-3.64
				c-1.19-1.261-2.38-2.591-3.5-3.92c-0.07-0.14-0.21-0.21-0.28-0.35c-0.21-0.21-0.35-0.35-0.49-0.559
				c-0.42-0.49-0.84-0.911-1.19-1.401c-0.7-0.699-1.26-1.47-1.89-2.17c-0.42-0.489-0.84-0.979-1.19-1.538
				c-0.84-0.981-1.61-1.962-2.31-2.941c-1.19-1.47-2.31-3.009-3.5-4.479l9.73-6.86l14-9.801l65.66-46.059l47.39-33.181l0.14-0.14
				c0.63,0.42,1.19,0.841,1.82,1.261c0.21,0.21,0.49,0.35,0.7,0.489c0.14,0.072,0.21,0.14,0.35,0.212c0,0,0.07,0,0.07,0.068
				c0.07,0.072,0.14,0.14,0.28,0.21h0.07c0.49,0.35,0.56,0.35,2.8,1.68l2.17,1.191c0.35,0.21,0.7,0.35,1.05,0.559
				c0.07,0,0.14,0.07,0.21,0.07c0.42,0.21,0.84,0.35,1.19,0.561c0.98,0.49,1.96,0.911,3.01,1.33c0.91,0.42,1.82,0.701,2.8,1.051
				c0.07,0,0.14,0,0.21,0.068h0.07c2.8,0.911,5.6,1.612,8.54,2.102c2.87,0.559,5.74,0.839,8.75,0.909
				c4.2,0.14,8.33-0.21,12.319-0.909c14.91-2.521,28-10.64,37.1-22.121c0.07-0.07,0.07-0.07,0.14-0.14
				c5.95,5.67,12.81,10.29,20.51,13.511c1.89,0.839,3.85,1.61,5.88,2.169c2.66,0.841,5.46,1.54,8.33,2.03
				c3.36,0.631,6.86,1.051,10.36,1.119c2.94,0.07,5.81,0,8.68-0.349c33.95-3.151,60.97-31.291,61.88-66.291
				c0.21-6.369-0.56-12.598-2.03-18.479c-1.4-5.6-3.5-10.85-6.16-15.75c22.68-7.911,39.969-27.369,44.66-51.52
				c0.49-2.379,0.84-4.83,1.05-7.349c0.14-1.33,0.21-2.661,0.28-4.061v-1.61c0-2.731-0.14-5.39-0.49-8.049v-0.072l9.87-6.86
				c1.05,1.61,2.1,3.292,3.15,4.901c0,0,0,0.068,0.07,0.068c0.42,0.771,0.91,1.542,1.4,2.31c0.07,0.07,0.07,0.14,0.07,0.21
				c0.49,0.701,0.98,1.47,1.33,2.17c0.42,0.699,0.84,1.4,1.26,2.1c0.28,0.489,0.63,1.049,0.91,1.61
				c0.21,0.349,0.35,0.629,0.56,0.979v0.07c0.14,0.21,0.21,0.42,0.35,0.631c0.49,0.979,1.05,1.89,1.61,2.869
				c0.63,1.189,1.26,2.381,1.89,3.57c0.21,0.42,0.42,0.841,0.63,1.259c0.35,0.771,0.77,1.542,1.19,2.311
				c0.42,0.841,0.77,1.61,1.12,2.451c1.75,3.64,3.36,7.208,4.9,10.849c0.07,0.14,0.07,0.212,0.14,0.35
				c0.63,1.54,1.26,3.081,1.89,4.621c0.42,0.979,0.77,1.96,1.12,3.009c0.07,0.21,0.21,0.491,0.28,0.701
				c0.42,1.189,0.91,2.449,1.33,3.708c0.14,0.35,0.28,0.771,0.42,1.191c0.28,0.839,0.56,1.68,0.84,2.519
				c0.63,1.82,1.19,3.71,1.82,5.6c0.42,1.54,0.91,3.08,1.4,4.621c0.07,0.349,0.21,0.699,0.28,1.049c0.49,1.75,0.91,3.5,1.33,5.25
				c0.28,0.769,0.42,1.54,0.63,2.311c0.28,1.259,0.63,2.519,0.91,3.78c0.07,0.489,0.21,0.909,0.28,1.329
				c0.21,0.839,0.35,1.68,0.49,2.519c0.28,1.261,0.49,2.521,0.77,3.78c0.28,1.33,0.49,2.591,0.7,3.85
				c0.21,1.259,0.42,2.589,0.63,3.85c0.07,0.559,0.14,1.119,0.21,1.68c0.21,1.189,0.42,2.449,0.56,3.71
				c0.14,1.049,0.28,2.099,0.35,3.22c0.21,1.61,0.42,3.22,0.56,4.9c0.07,0.631,0.14,1.189,0.21,1.82
				c0.07,0.561,0.07,1.049,0.14,1.61c0.14,1.61,0.21,3.22,0.35,4.759c0,0.49,0.07,0.911,0.07,1.331
				c0.07,1.329,0.14,2.589,0.14,3.919c0.14,1.89,0.14,3.78,0.14,5.74C462.487,155.469,462.487,157.429,462.487,159.389z"/>
			<path style="fill:#E95D63;" d="M191.239,209.088c-1.05-0.419-2.03-0.839-3.01-1.33c-0.21-0.07-0.35-0.14-0.56-0.21
				c-0.21-0.14-0.42-0.21-0.63-0.35c-0.07,0-0.14-0.07-0.21-0.07c-0.35-0.208-0.7-0.349-1.05-0.559
				c-0.77-0.35-1.47-0.771-2.17-1.191c-2.24-1.33-2.31-1.33-2.8-1.68h-0.07c-0.14-0.07-0.21-0.138-0.28-0.21
				c0-0.068-0.07-0.068-0.07-0.068c-0.14-0.072-0.21-0.14-0.35-0.212c-0.21-0.139-0.49-0.279-0.7-0.419
				c-0.63-0.49-1.19-0.911-1.82-1.331l-0.07-0.068l-0.14,0.14l-47.32,33.25l-65.66,46.059l-14,9.801l-9.73,6.86l-4.48,3.08
				l-2.59,1.82l-23.03,16.24h-0.07l-0.14,0.14h-0.07l-5.6,3.919L0,325.918c1.12,1.538,2.24,2.939,3.36,4.409
				c1.47,1.89,2.94,3.78,4.41,5.67c0.91,1.049,1.75,2.03,2.73,3.15l6.23-4.339l4.2-2.941l15.68-11.059l7.49-5.25l2.66-1.822
				l4.41-3.15l8.12-5.741l3.99-2.799l128.729-90.229h0.07l2.1-1.612h0.07l0.07-0.068
				C193.269,209.788,192.219,209.508,191.239,209.088z M471.307,10.708l-0.91-1.538l-0.56-0.981l-0.49-0.769
				c-0.14-0.212-0.21-0.35-0.35-0.49c0,0-0.07-0.07-0.07-0.14c-0.7-1.051-1.4-2.17-2.03-3.29c-0.77-1.189-1.54-2.381-2.38-3.5
				l-0.14,0.14l-7.63,5.39l-1.47,0.979l-1.12,0.771l-14,9.869l-4.48,3.15l-4.62,3.22l-7.07,4.97l-9.87,6.932
				c0.35,2.659,0.49,5.318,0.49,8.049c-0.07,0.561-0.07,1.049-0.07,1.61c0,1.4-0.07,2.731-0.21,4.061
				c-0.21,2.519-0.56,4.97-1.05,7.349l5.6-3.849l13.86-9.731v-0.07l7.07-4.97l6.23-4.339l11.76-8.261l5.18-3.64h0.07l5.74-4.059
				l4.69-3.29C472.777,13.089,472.007,11.9,471.307,10.708z"/>
			<g>
				<path style="fill:#E95D63;" d="M118.173,293.219c-3.236,2.196-2.242,10.69,1.503,16.21c3.745,5.521,9.122,8.408,13.284,5.585
					c4.161-2.823,3.465-8.887-0.28-14.407C128.934,295.087,121.409,291.024,118.173,293.219z"/>
				<path style="fill:#E95D63;" d="M118.033,294.085c-2.862,2.008-1.811,9.648,1.653,14.584c3.463,4.936,8.341,7.485,12.021,4.903
					c3.68-2.582,2.942-8.036-0.521-12.972C127.722,295.665,120.895,292.077,118.033,294.085z"/>
				<circle style="fill:#E95D63;" cx="121.58" cy="302.22" r="3.746"/>
			</g>
			<g>
				<path style="fill:#E95D63;" d="M197.554,323.763c-2.993,2.03-2.073,9.886,1.39,14.991c3.464,5.105,8.436,7.776,12.284,5.165
					c3.848-2.611,3.205-8.218-0.259-13.324C207.507,325.49,200.548,321.732,197.554,323.763z"/>
				<path style="fill:#E95D63;" d="M197.425,324.564c-2.647,1.857-1.675,8.923,1.528,13.487c3.203,4.565,7.714,6.922,11.117,4.534
					c3.403-2.388,2.721-7.432-0.482-11.996C206.386,326.024,200.072,322.706,197.425,324.564z"/>
				<circle style="fill:#E95D63;" cx="200.706" cy="332.087" r="3.464"/>
			</g>
			<g>
				<path style="fill:#E95D63;" d="M287.421,301.639c-3.19,2.164-2.21,10.537,1.482,15.979c3.692,5.442,8.992,8.288,13.094,5.506
					c4.102-2.783,3.416-8.76-0.276-14.202C298.029,303.48,290.611,299.475,287.421,301.639z"/>
				<path style="fill:#E95D63;" d="M287.284,302.493c-2.821,1.98-1.785,9.51,1.629,14.376c3.414,4.866,8.222,7.378,11.85,4.833
					c3.627-2.545,2.9-7.921-0.514-12.787C296.834,304.049,290.105,300.513,287.284,302.493z"/>
				<circle style="fill:#E95D63;" cx="290.78" cy="310.512" r="3.693"/>
			</g>
			<g>
				<path style="fill:#E95D63;" d="M194.719,242.935c-2.931,1.989-2.031,9.682,1.362,14.682c3.392,5,8.262,7.616,12.031,5.059
					c3.769-2.557,3.139-8.049-0.254-13.049C204.466,244.626,197.65,240.946,194.719,242.935z"/>
				<path style="fill:#E95D63;" d="M194.593,243.719c-2.592,1.819-1.64,8.739,1.497,13.21c3.137,4.471,7.555,6.779,10.888,4.441
					c3.333-2.339,2.665-7.279-0.472-11.749C203.368,245.15,197.185,241.9,194.593,243.719z"/>
				<circle style="fill:#E95D63;" cx="197.805" cy="251.087" r="3.393"/>
			</g>
			<g>
				<path style="fill:#E95D63;" d="M276.982,205.068c-3.181,2.158-2.203,10.505,1.477,15.931c3.681,5.426,8.965,8.263,13.054,5.489
					c4.089-2.774,3.406-8.733-0.275-14.159C287.558,206.903,280.163,202.91,276.982,205.068z"/>
				<path style="fill:#E95D63;" d="M276.845,205.919c-2.813,1.974-1.78,9.482,1.624,14.333c3.404,4.851,8.197,7.356,11.814,4.818
					c3.616-2.538,2.891-7.897-0.512-12.748C286.367,207.471,279.658,203.945,276.845,205.919z"/>
				<circle style="fill:#E95D63;" cx="280.331" cy="213.914" r="3.681"/>
			</g>
			<g>
				<path style="fill:#E95D63;" d="M358.873,242.885c-2.81,1.9-1.555,9.826,2.042,15.111c3.597,5.284,8.545,8.194,12.158,5.752
					c3.613-2.442,2.73-8.1-0.867-13.385C368.608,245.078,361.683,240.985,358.873,242.885z"/>
				<path style="fill:#E95D63;" d="M358.785,243.683c-2.482,1.742-1.212,8.878,2.106,13.608c3.319,4.73,7.804,7.304,10.996,5.065
					c3.191-2.239,2.296-7.333-1.022-12.063C367.546,245.563,361.267,241.941,358.785,243.683z"/>
				
					<ellipse transform="matrix(0.8186 -0.5744 0.5744 0.8186 -78.6627 253.7129)" style="fill:#E95D63;" cx="362.315" cy="251.385" rx="3.249" ry="3.59"/>
			</g>
			<g>
				<path style="fill:#E95D63;" d="M407.79,82.063c-3.02,2.049-2.092,9.974,1.403,15.125c3.495,5.151,8.512,7.845,12.394,5.212
					c3.883-2.634,3.233-8.292-0.261-13.443C417.831,83.806,410.809,80.015,407.79,82.063z"/>
				<path style="fill:#E95D63;" d="M407.659,82.872c-2.671,1.874-1.69,9.002,1.542,13.608s7.783,6.984,11.216,4.575
					c3.434-2.409,2.745-7.498-0.486-12.104C416.7,84.345,410.33,80.998,407.659,82.872z"/>
				<circle style="fill:#E95D63;" cx="410.969" cy="90.462" r="3.495"/>
			</g>
			<g>
				<path style="fill:#E95D63;" d="M406.187,181.085c-3.326,2.256-2.304,10.985,1.545,16.658c3.849,5.673,9.374,8.641,13.65,5.74
					s3.561-9.132-0.288-14.805C417.246,183.005,409.513,178.829,406.187,181.085z"/>
				<path style="fill:#E95D63;" d="M406.044,181.975c-2.941,2.064-1.861,9.915,1.698,14.987c3.559,5.072,8.572,7.692,12.353,5.039
					c3.782-2.653,3.023-8.258-0.536-13.331C416.001,183.598,408.985,179.911,406.044,181.975z"/>
				<circle style="fill:#E95D63;" cx="409.689" cy="190.335" r="3.85"/>
			</g>
			<path style="fill:#E95D63;" d="M188.229,207.758l-0.07,0.07l-1.54,1.049L59.01,298.407l-4.41,3.151l-6.93,4.829l-0.07,0.068
				l-7,4.971l-23.1,16.169c-0.21-0.279-0.49-0.559-0.7-0.769c-0.07-0.07-0.14-0.14-0.14-0.21c-0.07,0-0.07-0.07-0.07-0.07
				l-0.07-0.07c-0.07-0.07-0.07-0.07-0.14-0.14c-2.17-2.449-4.2-4.97-6.16-7.559c0-0.072-0.07-0.072-0.07-0.14l40.04-28.14
				l77.209-54.11l0.07-0.07l49.77-34.861v-0.068l0.14-0.07c0,0.07,0.07,0.07,0.07,0.07l0.07,0.068c0.63,0.42,1.19,0.841,1.82,1.261
				c0.21,0.21,0.49,0.35,0.7,0.489c0.14,0.072,0.21,0.14,0.35,0.212c0,0,0.07,0,0.07,0.068c0.14,0.072,0.21,0.14,0.35,0.21
				c0.49,0.35,0.56,0.35,2.8,1.68l2.17,1.191c0.35,0.21,0.7,0.35,1.05,0.559c0.07,0,0.14,0.07,0.21,0.07
				C187.459,207.408,187.879,207.548,188.229,207.758z"/>
			<path style="fill:#E95D63;" d="M461.087,16.379l-0.84,0.561l-23.17,16.24l-7.07,4.97h-0.07l-10.92,7.699l-4.69,3.292
				c0.14-1.33,0.21-2.661,0.28-4.061v-1.61c0-2.731-0.14-5.39-0.49-8.049v-0.072c0-0.068,0-0.14,0-0.14l40.88-28.699l0.21-0.14
				c0,0.07,0,0.07,0.07,0.14c1.05,1.68,2.1,3.36,3.08,5.04C459.267,13.159,460.177,14.769,461.087,16.379z"/>
		</g>
		<g>
			<path style="fill:#399C56;" d="M424.057,362.808c-6.93,6.579-14.28,12.879-21.98,18.898c-3.5,2.731-7.07,5.322-10.78,7.911
				c-12.46,8.75-25.41,16.311-38.64,22.82c-3.08,1.47-6.23,2.939-9.38,4.341c-84.98,37.729-182.419,30.589-260.398-15.822
				C56,384.997,31.5,364.346,10.5,339.217v-0.07c-0.98-1.119-1.82-2.1-2.73-3.15c-1.47-1.89-2.94-3.78-4.41-5.67
				c-1.12-1.47-2.24-2.871-3.36-4.409l4.62-3.221l5.6-3.919h0.07l0.14-0.14h0.07c1.68,2.239,3.36,4.409,5.04,6.58
				c0.28,0.42,0.56,0.769,0.84,1.119c0.07,0.07,0.07,0.07,0.14,0.14l0.07,0.07c0,0.07,0.07,0.07,0.07,0.07
				c0,0.07,0.07,0.14,0.14,0.21c0.21,0.21,0.49,0.491,0.7,0.769c1.05,1.471,2.24,2.871,3.43,4.271c2.52,3.01,5.11,5.951,7.77,8.82
				c2.8,3.08,5.67,6.091,8.61,9.03c2.59,2.591,5.25,5.11,7.91,7.489c2.8,2.591,5.67,5.112,8.54,7.561
				c0.49,0.42,0.98,0.841,1.4,1.189c2.52,2.03,5.04,4.131,7.63,6.091c6.37,4.9,12.88,9.451,19.53,13.72
				c1.12,0.771,2.31,1.47,3.5,2.24c0.63,0.35,1.12,0.699,1.68,0.979c11.76,7.14,23.94,13.301,36.47,18.481
				c0.98,0.42,1.96,0.841,2.94,1.259c0.07,0,0.07,0,0.07,0c2.1,0.841,4.2,1.68,6.37,2.451c2.24,0.839,4.48,1.68,6.79,2.449
				c11.69,4.061,23.66,7.21,35.84,9.591c0.42,0.14,0.77,0.21,1.12,0.28c0.7,0.14,1.4,0.28,2.17,0.349
				c1.33,0.28,2.66,0.491,3.99,0.701c0.84,0.21,1.82,0.35,2.73,0.49c2.52,0.419,5.11,0.771,7.77,1.119
				c2.17,0.28,4.34,0.49,6.51,0.771c2.73,0.279,5.39,0.491,8.12,0.699c4.13,0.28,8.19,0.491,12.39,0.631c0.35,0,0.77,0.07,1.19,0.07
				c1.89,0,3.85,0.07,5.81,0.07c1.89,0,3.78,0,5.74-0.07c1.4,0,2.8-0.07,4.2-0.07c0.28,0,0.63-0.07,0.91-0.07
				c0.91,0,1.75-0.07,2.66-0.07c0.35,0,0.7-0.07,0.98-0.07c1.68-0.07,3.29-0.21,4.83-0.28c0.56-0.07,1.05-0.07,1.61-0.14
				c1.19-0.068,2.45-0.208,3.64-0.28c0.84-0.068,1.61-0.14,2.45-0.279c2.38-0.21,4.76-0.42,7.14-0.771
				c6.44-0.769,12.88-1.82,19.25-3.08c4.97-0.981,9.94-2.1,14.84-3.43c1.4-0.35,2.87-0.701,4.34-1.119
				c1.47-0.42,3.01-0.771,4.48-1.331c0.07,0.07,0.21,0,0.35-0.07c1.47-0.42,2.94-0.839,4.41-1.33c0.7-0.21,1.4-0.42,2.17-0.701
				c0.98-0.28,1.96-0.559,2.94-0.909c0.84-0.28,1.75-0.631,2.59-0.909c0.91-0.35,1.82-0.631,2.73-0.981
				c0.98-0.35,1.89-0.701,2.87-1.049c1.47-0.56,2.87-1.121,4.34-1.682c2.94-1.119,5.81-2.309,8.68-3.568c0,0,0.07,0,0.07-0.07
				c1.26-0.491,2.45-1.051,3.71-1.612c0.42-0.208,0.91-0.419,1.33-0.629c1.12-0.491,2.24-1.049,3.43-1.54
				c0.14-0.07,0.21-0.14,0.35-0.21c0.84-0.35,1.68-0.769,2.45-1.189c0.56-0.21,1.05-0.491,1.61-0.771c1.4-0.699,2.8-1.47,4.27-2.17
				c1.19-0.629,2.31-1.189,3.5-1.888c0.77-0.42,1.54-0.841,2.31-1.331c4.97-2.659,9.94-5.6,14.77-8.68
				c0.77-0.489,1.47-0.909,2.24-1.47c0.84-0.49,1.68-1.049,2.52-1.61c0.91-0.56,1.82-1.261,2.73-1.89
				c0.98-0.631,1.89-1.259,2.8-1.89c3.71-2.591,7.35-5.32,10.92-8.119c1.33-1.051,2.73-2.1,4.06-3.15c0,0,0-0.072,0.07-0.072
				c0.56-0.489,1.19-0.979,1.75-1.4c2.38-1.96,4.62-3.919,6.86-5.879c1.82-1.612,3.57-3.221,5.32-4.831
				c4.06-3.708,7.91-7.559,11.62-11.479c2.73-2.801,5.39-5.67,7.91-8.61c0.91-1.051,1.75-2.03,2.59-3.079
				c9.52-11.131,17.92-22.89,25.34-35.21c0.42-0.631,0.77-1.189,1.05-1.82c0.91-1.47,1.82-3.01,2.66-4.551
				c0.49-0.839,0.98-1.678,1.4-2.449c1.47-2.729,2.94-5.46,4.34-8.191c0.7-1.4,1.4-2.869,2.1-4.269c1.12-2.17,2.1-4.409,3.08-6.58
				c4.9-10.64,9.03-21.63,12.39-32.761c0.07-0.28,0.21-0.629,0.28-0.979c0.28-0.979,0.63-1.96,0.91-3.009
				c1.68-5.811,3.15-11.621,4.41-17.5c0.21-0.911,0.42-1.82,0.56-2.731c0.14-0.56,0.28-1.049,0.35-1.54
				c0.21-0.979,0.42-1.96,0.63-2.939c0.56-3.01,1.05-6.021,1.54-9.03c0.7-4.689,1.33-9.38,1.82-14.07
				c0.28-2.519,0.49-5.04,0.7-7.629c0.07-1.401,0.21-2.871,0.28-4.341c0.07-1.33,0.14-2.591,0.21-3.92v-1.61
				c0.14-2.24,0.21-4.481,0.21-6.72c0.07-0.35,0.07-0.701,0-1.049c0.044-1.504,0.012-3.028,0-4.551c-0.006-0.89,0.026-1.782,0-2.661
				v-0.909c-0.07-3.009-0.14-6.019-0.35-9.03c-0.14-3.08-0.35-6.229-0.7-9.379c-0.07-0.942-0.196-1.883-0.282-2.825
				c-0.069-0.901-0.139-1.735-0.277-2.635c-0.07-0.981-0.14-1.96-0.28-2.941c-0.14-0.979-0.21-2.03-0.42-3.079
				c-0.21-1.68-0.42-3.43-0.7-5.18c-0.28-1.68-0.56-3.43-0.84-5.11c-0.35-2.17-0.7-4.339-1.19-6.439
				c-0.07-0.631-0.21-1.191-0.35-1.75c-0.49-2.731-1.05-5.39-1.75-8.051c-0.56-2.519-1.19-5.04-1.89-7.489
				c-1.26-4.901-2.73-9.731-4.27-14.561c-0.21-0.631-0.49-1.33-0.7-1.96c-0.07-0.28-0.14-0.559-0.28-0.771
				c-0.42-1.47-0.91-2.869-1.47-4.269c-0.63-1.96-1.4-3.92-2.17-5.881c-1.4-3.71-2.87-7.35-4.48-10.99
				c-0.49-1.119-1.05-2.309-1.54-3.5c-0.07-0.068-0.14-0.208-0.14-0.279c-0.35-0.841-0.77-1.61-1.12-2.451
				c-3.01-6.509-6.3-12.809-9.87-19.11c-0.42-0.771-0.84-1.47-1.26-2.24c-0.14-0.208-0.28-0.349-0.35-0.559
				c-0.77-1.4-1.61-2.731-2.45-4.131c-0.91-1.54-1.89-3.08-2.87-4.619c-1.12-1.68-2.17-3.362-3.22-4.971V7.28l1.12-0.771l1.47-0.979
				l7.63-5.39l0.14-0.14c0.84,1.119,1.61,2.311,2.38,3.5c0.63,1.119,1.33,2.239,2.03,3.29c0,0.07,0.07,0.14,0.07,0.14
				c0.14,0.14,0.21,0.279,0.35,0.49l0.49,0.769l0.56,0.981l0.91,1.538c0.7,1.191,1.47,2.381,2.17,3.572
				c3.29,5.669,6.37,11.339,9.17,17.15c11.41,22.96,19.39,46.969,24.15,71.329c0.07,0.28,0.14,0.561,0.14,0.839
				C524.787,196.768,495.037,295.328,424.057,362.808z"/>
			<path style="fill:#F2F9F3;" d="M454.131,7.323c81.129,122.037,50.527,287.207-70.129,371.868
				C263.364,463.84,97.634,436.43,10.473,318.625l30.141-21.149c75.367,100.996,218.421,124.447,322.251,51.592
				c103.848-72.867,130.459-215.367,61.124-320.596L454.131,7.323z"/>
			<path style="fill:#FDEFD1;" d="M466.757,202.438c-11.83,62.579-46.97,117.109-99.049,153.579c-10.29,7.21-21,13.579-32.13,19.11
				c-44.87,22.121-95.549,29.82-145.949,21.771c-57.189-9.24-108.289-37.869-145.529-81.339c-1.19-1.331-2.38-2.731-3.5-4.131
				c-2.38-2.941-4.69-5.881-7-8.89l-0.07-0.07v-0.07l2.59-1.82l4.48-3.08l9.73-6.86l14-9.801l65.66-46.059l47.39-33.181l0.14-0.14
				c0.63,0.42,1.19,0.841,1.82,1.261c0.21,0.21,0.49,0.35,0.7,0.489c0.14,0.072,0.21,0.14,0.35,0.212c0,0,0.07,0,0.07,0.068
				c0.07,0.072,0.14,0.14,0.28,0.21h0.07c0.49,0.35,0.56,0.35,2.8,1.68l2.17,1.191c0.35,0.21,0.7,0.35,1.05,0.559
				c0.07,0,0.14,0.07,0.21,0.07c0.42,0.21,0.84,0.35,1.19,0.561c0.98,0.49,1.96,0.911,3.01,1.33c0.91,0.42,1.82,0.701,2.8,1.051
				c0.07,0,0.14,0,0.21,0.068h0.07c2.8,0.911,5.6,1.612,8.54,2.102c2.87,0.559,5.74,0.839,8.75,0.909
				c4.2,0.14,8.33-0.21,12.319-0.909c14.91-2.521,28-10.64,37.1-22.121c0.07-0.07,0.07-0.07,0.14-0.14
				c5.95,5.67,12.81,10.29,20.51,13.511c1.89,0.839,3.85,1.61,5.88,2.169c2.66,0.841,5.46,1.54,8.33,2.03
				c3.36,0.631,6.86,1.051,10.36,1.119c2.94,0.07,5.81,0,8.68-0.349c33.95-3.151,60.97-31.291,61.88-66.291
				c0.21-6.369-0.56-12.598-2.03-18.479c-1.4-5.6-3.5-10.85-6.16-15.75c22.68-7.911,39.969-27.369,44.66-51.52
				c0.49-2.379,0.84-4.83,1.05-7.349c0.14-1.33,0.21-2.661,0.28-4.061v-1.61c0-2.731-0.14-5.39-0.49-8.049v-0.072l9.87-6.86
				l7.07-4.97l0.07,0.07c1.05,1.68,2.1,3.29,3.08,4.9c0.98,1.61,1.96,3.151,2.87,4.691c0.91,1.54,1.82,3.15,2.73,4.689
				c15.12,26.81,24.92,55.93,29.05,86.03C472.357,149.658,471.727,176.118,466.757,202.438z"/>
			<path style="fill:#E95D63;" d="M462.487,159.389c0,0.42,0,0.769-0.07,1.189c0,2.24-0.07,4.619-0.21,6.93v0.839
				c-0.49,10.011-1.61,20.021-3.36,29.962c-0.28,1.61-0.63,3.22-0.91,4.83c0,0.068,0,0.068-0.07,0.068
				c-0.07,0.631-0.21,1.191-0.35,1.75c-0.21,1.051-0.42,2.102-0.63,3.151c-0.28,1.189-0.56,2.379-0.84,3.57
				c-0.07,0.419-0.21,0.909-0.28,1.33c-0.35,1.33-0.7,2.661-1.05,3.99c-0.14,0.42-0.21,0.909-0.35,1.329
				c-0.84,3.08-1.75,6.159-2.66,9.241c-0.49,1.61-1.05,3.22-1.54,4.759c-0.77,2.311-1.61,4.549-2.45,6.79
				c-0.28,0.911-0.63,1.82-0.98,2.729c-0.21,0.561-0.42,1.191-0.7,1.75c-0.7,1.822-1.47,3.572-2.24,5.39
				c-0.56,1.401-1.19,2.801-1.82,4.201c-0.63,1.4-1.26,2.731-1.89,4.131c-0.7,1.54-1.47,3.079-2.24,4.619
				c-0.77,1.47-1.47,2.939-2.31,4.481c-1.05,2.029-2.1,3.989-3.22,5.949c-1.12,1.96-2.24,3.92-3.43,5.881
				c-0.77,1.329-1.54,2.659-2.38,3.989c-1.05,1.542-2.03,3.081-3.01,4.621c-1.05,1.54-2.03,3.009-3.08,4.549
				c-1.19,1.75-2.45,3.43-3.71,5.11c-1.26,1.75-2.52,3.43-3.85,5.11c-1.19,1.542-2.38,3.011-3.64,4.551
				c-1.47,1.75-2.94,3.5-4.48,5.25c-1.54,1.75-3.08,3.43-4.62,5.18c-1.26,1.4-2.59,2.729-3.92,4.061
				c-0.84,0.839-1.61,1.678-2.45,2.519c-0.84,0.841-1.68,1.68-2.52,2.451c-1.12,1.119-2.31,2.239-3.5,3.29
				c-0.21,0.21-0.42,0.419-0.63,0.631c-0.42,0.419-0.84,0.839-1.33,1.189c-1.05,0.979-2.1,1.958-3.22,2.939
				c-0.63,0.561-1.33,1.121-1.96,1.68c-0.91,0.771-1.82,1.54-2.8,2.311c-1.47,1.189-2.87,2.381-4.41,3.57
				c-3.36,2.659-6.93,5.32-10.5,7.839c-2.8,1.96-5.67,3.92-8.54,5.67c-4.48,2.939-9.03,5.6-13.58,8.051
				c-3.85,2.169-7.7,4.129-11.62,5.949c-2.66,1.259-5.32,2.521-7.98,3.64c-2.24,0.979-4.48,1.89-6.79,2.799
				c-0.49,0.21-1.05,0.42-1.54,0.631h-0.07c-1.26,0.491-2.52,0.981-3.78,1.4c-2.38,0.911-4.83,1.75-7.21,2.521
				c-2.31,0.769-4.55,1.47-6.86,2.17h-0.07c-2.94,0.909-5.95,1.75-8.96,2.449c-2.38,0.631-4.69,1.191-7.07,1.68
				c-5.32,1.189-10.64,2.17-15.96,2.939c-2.52,0.42-5.04,0.701-7.56,0.981c-0.35,0.07-0.77,0.14-1.12,0.14
				c-2.17,0.28-4.27,0.42-6.44,0.629c-2.24,0.21-4.48,0.35-6.72,0.42c-1.68,0.14-3.43,0.21-5.18,0.21
				c-4.48,0.21-8.89,0.21-13.37,0.07c-1.61-0.07-3.22-0.14-4.76-0.21c-0.56,0-1.19-0.07-1.75-0.07c-0.14,0-0.28,0-0.35-0.07
				c-1.75-0.07-3.5-0.21-5.18-0.35c-0.56,0-1.12-0.068-1.68-0.068c-0.07,0-0.07,0-0.14,0c-0.77-0.072-1.54-0.14-2.31-0.28
				c-0.42,0-0.91,0-1.33-0.07c-0.21,0-0.35-0.07-0.56-0.07c-1.96-0.21-3.99-0.42-5.95-0.701c-0.21,0-0.35-0.07-0.56-0.07
				c-1.54-0.21-3.15-0.419-4.62-0.699c-0.56-0.072-1.12-0.14-1.68-0.21h-0.07c-1.61-0.28-3.15-0.561-4.69-0.841
				c-0.07,0-0.14,0-0.28-0.07c-1.47-0.21-2.94-0.489-4.48-0.839c-0.28,0-0.63-0.07-0.91-0.14c-1.26-0.28-2.59-0.561-3.85-0.841
				c-0.49-0.14-0.91-0.21-1.4-0.35h-0.07c-0.56-0.14-1.19-0.28-1.75-0.419c-1.82-0.42-3.57-0.841-5.39-1.331
				c-0.56-0.14-1.19-0.349-1.82-0.489c-0.77-0.21-1.47-0.42-2.24-0.631c-0.56-0.14-1.19-0.35-1.82-0.491
				c-1.47-0.42-2.94-0.839-4.41-1.33c-0.35-0.14-0.7-0.21-1.05-0.35c-1.54-0.491-3.15-0.979-4.69-1.54
				c-1.61-0.561-3.22-1.049-4.76-1.68c-0.7-0.21-1.33-0.419-2.03-0.699c-0.84-0.28-1.61-0.631-2.45-0.981
				c-0.91-0.35-1.82-0.701-2.66-1.049c-0.28-0.07-0.49-0.21-0.77-0.28c-0.98-0.35-1.89-0.771-2.8-1.189
				c-1.12-0.42-2.24-0.911-3.29-1.401c-1.54-0.629-3.08-1.33-4.62-2.099c-1.82-0.841-3.64-1.682-5.46-2.591
				c-1.47-0.701-2.87-1.47-4.27-2.17c-0.14-0.07-0.28-0.14-0.35-0.208c-0.7-0.352-1.33-0.701-1.96-1.051
				c-3.36-1.82-6.72-3.71-10.01-5.67c-0.77-0.49-1.54-0.909-2.31-1.47c-0.35-0.21-0.63-0.35-0.98-0.559
				c-0.63-0.352-1.26-0.771-1.89-1.121c-0.28-0.14-0.49-0.35-0.77-0.561c-1.12-0.699-2.31-1.47-3.43-2.239
				c-0.07,0-0.07-0.07-0.14-0.07c-1.47-1.051-2.94-1.96-4.34-3.009c-0.63-0.42-1.19-0.841-1.82-1.261
				c-0.14-0.14-0.28-0.21-0.42-0.35c-1.19-0.839-2.38-1.75-3.57-2.659c-2.17-1.61-4.34-3.29-6.51-4.97
				c-1.19-1.051-2.38-2.03-3.57-3.01c-1.33-1.051-2.59-2.17-3.85-3.291c-1.68-1.47-3.43-3.01-5.04-4.549
				c-0.14-0.14-0.21-0.21-0.35-0.35c-0.91-0.839-1.89-1.75-2.8-2.589c-0.56-0.561-1.12-1.121-1.68-1.682
				c-1.05-1.049-2.1-2.029-3.08-3.15h-0.07c-0.77-0.839-1.54-1.61-2.31-2.449c-1.12-1.189-2.24-2.381-3.36-3.64
				c-1.19-1.261-2.38-2.591-3.5-3.92c-0.07-0.14-0.21-0.21-0.28-0.35c-0.21-0.21-0.35-0.35-0.49-0.559
				c-0.42-0.49-0.84-0.911-1.19-1.401c-0.7-0.699-1.26-1.47-1.89-2.17c-0.42-0.489-0.84-0.979-1.19-1.538
				c-0.84-0.981-1.61-1.962-2.31-2.941c-1.19-1.47-2.31-3.009-3.5-4.479l9.73-6.86l14-9.801l65.66-46.059l47.39-33.181l0.14-0.14
				c0.63,0.42,1.19,0.841,1.82,1.261c0.21,0.21,0.49,0.35,0.7,0.489c0.14,0.072,0.21,0.14,0.35,0.212c0,0,0.07,0,0.07,0.068
				c0.07,0.072,0.14,0.14,0.28,0.21h0.07c0.49,0.35,0.56,0.35,2.8,1.68l2.17,1.191c0.35,0.21,0.7,0.35,1.05,0.559
				c0.07,0,0.14,0.07,0.21,0.07c0.42,0.21,0.84,0.35,1.19,0.561c0.98,0.49,1.96,0.911,3.01,1.33c0.91,0.42,1.82,0.701,2.8,1.051
				c0.07,0,0.14,0,0.21,0.068h0.07c2.8,0.911,5.6,1.612,8.54,2.102c2.87,0.559,5.74,0.839,8.75,0.909
				c4.2,0.14,8.33-0.21,12.319-0.909c14.91-2.521,28-10.64,37.1-22.121c0.07-0.07,0.07-0.07,0.14-0.14
				c5.95,5.67,12.81,10.29,20.51,13.511c1.89,0.839,3.85,1.61,5.88,2.169c2.66,0.841,5.46,1.54,8.33,2.03
				c3.36,0.631,6.86,1.051,10.36,1.119c2.94,0.07,5.81,0,8.68-0.349c33.95-3.151,60.97-31.291,61.88-66.291
				c0.21-6.369-0.56-12.598-2.03-18.479c-1.4-5.6-3.5-10.85-6.16-15.75c22.68-7.911,39.969-27.369,44.66-51.52
				c0.49-2.379,0.84-4.83,1.05-7.349c0.14-1.33,0.21-2.661,0.28-4.061v-1.61c0-2.731-0.14-5.39-0.49-8.049v-0.072l9.87-6.86
				c1.05,1.61,2.1,3.292,3.15,4.901c0,0,0,0.068,0.07,0.068c0.42,0.771,0.91,1.542,1.4,2.31c0.07,0.07,0.07,0.14,0.07,0.21
				c0.49,0.701,0.98,1.47,1.33,2.17c0.42,0.699,0.84,1.4,1.26,2.1c0.28,0.489,0.63,1.049,0.91,1.61
				c0.21,0.349,0.35,0.629,0.56,0.979v0.07c0.14,0.21,0.21,0.42,0.35,0.631c0.49,0.979,1.05,1.89,1.61,2.869
				c0.63,1.189,1.26,2.381,1.89,3.57c0.21,0.42,0.42,0.841,0.63,1.259c0.35,0.771,0.77,1.542,1.19,2.311
				c0.42,0.841,0.77,1.61,1.12,2.451c1.75,3.64,3.36,7.208,4.9,10.849c0.07,0.14,0.07,0.212,0.14,0.35
				c0.63,1.54,1.26,3.081,1.89,4.621c0.42,0.979,0.77,1.96,1.12,3.009c0.07,0.21,0.21,0.491,0.28,0.701
				c0.42,1.189,0.91,2.449,1.33,3.708c0.14,0.35,0.28,0.771,0.42,1.191c0.28,0.839,0.56,1.68,0.84,2.519
				c0.63,1.82,1.19,3.71,1.82,5.6c0.42,1.54,0.91,3.08,1.4,4.621c0.07,0.349,0.21,0.699,0.28,1.049c0.49,1.75,0.91,3.5,1.33,5.25
				c0.28,0.769,0.42,1.54,0.63,2.311c0.28,1.259,0.63,2.519,0.91,3.78c0.07,0.489,0.21,0.909,0.28,1.329
				c0.21,0.839,0.35,1.68,0.49,2.519c0.28,1.261,0.49,2.521,0.77,3.78c0.28,1.33,0.49,2.591,0.7,3.85
				c0.21,1.259,0.42,2.589,0.63,3.85c0.07,0.559,0.14,1.119,0.21,1.68c0.21,1.189,0.42,2.449,0.56,3.71
				c0.14,1.049,0.28,2.099,0.35,3.22c0.21,1.61,0.42,3.22,0.56,4.9c0.07,0.631,0.14,1.189,0.21,1.82
				c0.07,0.561,0.07,1.049,0.14,1.61c0.14,1.61,0.21,3.22,0.35,4.759c0,0.49,0.07,0.911,0.07,1.331
				c0.07,1.329,0.14,2.589,0.14,3.919c0.14,1.89,0.14,3.78,0.14,5.74C462.487,155.469,462.487,157.429,462.487,159.389z"/>
			<path style="opacity:0.2;fill:#FEF8F9;" d="M191.239,209.088c-1.05-0.419-2.03-0.839-3.01-1.33c-0.21-0.07-0.35-0.14-0.56-0.21
				c-0.21-0.14-0.42-0.21-0.63-0.35c-0.07,0-0.14-0.07-0.21-0.07c-0.35-0.208-0.7-0.349-1.05-0.559
				c-0.77-0.35-1.47-0.771-2.17-1.191c-2.24-1.33-2.31-1.33-2.8-1.68h-0.07c-0.14-0.07-0.21-0.138-0.28-0.21
				c0-0.068-0.07-0.068-0.07-0.068c-0.14-0.072-0.21-0.14-0.35-0.212c-0.21-0.139-0.49-0.279-0.7-0.419
				c-0.63-0.49-1.19-0.911-1.82-1.331l-0.07-0.068l-0.14,0.14l-47.32,33.25l-65.66,46.059l-14,9.801l-9.73,6.86l-4.48,3.08
				l-2.59,1.82l-23.03,16.24h-0.07l-0.14,0.14h-0.07l-5.6,3.919L0,325.918c1.12,1.538,2.24,2.939,3.36,4.409
				c1.47,1.89,2.94,3.78,4.41,5.67c0.91,1.049,1.75,2.03,2.73,3.15l6.23-4.339l4.2-2.941l15.68-11.059l7.49-5.25l2.66-1.822
				l4.41-3.15l8.12-5.741l3.99-2.799l128.729-90.229h0.07l2.1-1.612h0.07l0.07-0.068
				C193.269,209.788,192.219,209.508,191.239,209.088z M471.307,10.708l-0.91-1.538l-0.56-0.981l-0.49-0.769
				c-0.14-0.212-0.21-0.35-0.35-0.49c0,0-0.07-0.07-0.07-0.14c-0.7-1.051-1.4-2.17-2.03-3.29c-0.77-1.189-1.54-2.381-2.38-3.5
				l-0.14,0.14l-7.63,5.39l-1.47,0.979l-1.12,0.771l-14,9.869l-4.48,3.15l-4.62,3.22l-7.07,4.97l-9.87,6.932
				c0.35,2.659,0.49,5.318,0.49,8.049c-0.07,0.561-0.07,1.049-0.07,1.61c0,1.4-0.07,2.731-0.21,4.061
				c-0.21,2.519-0.56,4.97-1.05,7.349l5.6-3.849l13.86-9.731v-0.07l7.07-4.97l6.23-4.339l11.76-8.261l5.18-3.64h0.07l5.74-4.059
				l4.69-3.29C472.777,13.089,472.007,11.9,471.307,10.708z"/>
			<g>
				<path style="opacity:0.2;fill:#FFFFFF;" d="M118.173,293.219c-3.236,2.196-2.242,10.69,1.503,16.21
					c3.745,5.521,9.122,8.408,13.284,5.585c4.161-2.823,3.465-8.887-0.28-14.407C128.934,295.087,121.409,291.024,118.173,293.219z"
					/>
				<path style="fill:#383838;" d="M118.033,294.085c-2.862,2.008-1.811,9.648,1.653,14.584c3.463,4.936,8.341,7.485,12.021,4.903
					c3.68-2.582,2.942-8.036-0.521-12.972C127.722,295.665,120.895,292.077,118.033,294.085z"/>
				<circle style="opacity:0.3;fill:#484747;" cx="121.58" cy="302.22" r="3.746"/>
			</g>
			<g>
				<path style="opacity:0.2;fill:#FFFFFF;" d="M197.554,323.763c-2.993,2.03-2.073,9.886,1.39,14.991
					c3.464,5.105,8.436,7.776,12.284,5.165c3.848-2.611,3.205-8.218-0.259-13.324C207.507,325.49,200.548,321.732,197.554,323.763z"
					/>
				<path style="fill:#383838;" d="M197.425,324.564c-2.647,1.857-1.675,8.923,1.528,13.487c3.203,4.565,7.714,6.922,11.117,4.534
					c3.403-2.388,2.721-7.432-0.482-11.996C206.386,326.024,200.072,322.706,197.425,324.564z"/>
				<circle style="opacity:0.3;fill:#484747;" cx="200.706" cy="332.087" r="3.464"/>
			</g>
			<g>
				<path style="opacity:0.2;fill:#FFFFFF;" d="M287.421,301.639c-3.19,2.164-2.21,10.537,1.482,15.979
					c3.692,5.442,8.992,8.288,13.094,5.506c4.102-2.783,3.416-8.76-0.276-14.202C298.029,303.48,290.611,299.475,287.421,301.639z"
					/>
				<path style="fill:#383838;" d="M287.284,302.493c-2.821,1.98-1.785,9.51,1.629,14.376c3.414,4.866,8.222,7.378,11.85,4.833
					c3.627-2.545,2.9-7.921-0.514-12.787C296.834,304.049,290.105,300.513,287.284,302.493z"/>
				<circle style="opacity:0.3;fill:#484747;" cx="290.78" cy="310.512" r="3.693"/>
			</g>
			<g>
				<path style="opacity:0.2;fill:#FFFFFF;" d="M194.719,242.935c-2.931,1.989-2.031,9.682,1.362,14.682
					c3.392,5,8.262,7.616,12.031,5.059c3.769-2.557,3.139-8.049-0.254-13.049C204.466,244.626,197.65,240.946,194.719,242.935z"/>
				<path style="fill:#383838;" d="M194.593,243.719c-2.592,1.819-1.64,8.739,1.497,13.21c3.137,4.471,7.555,6.779,10.888,4.441
					c3.333-2.339,2.665-7.279-0.472-11.749C203.368,245.15,197.185,241.9,194.593,243.719z"/>
				<circle style="opacity:0.3;fill:#484747;" cx="197.805" cy="251.087" r="3.393"/>
			</g>
			<g>
				<path style="opacity:0.2;fill:#FFFFFF;" d="M276.982,205.068c-3.181,2.158-2.203,10.505,1.477,15.931
					c3.681,5.426,8.965,8.263,13.054,5.489c4.089-2.774,3.406-8.733-0.275-14.159C287.558,206.903,280.163,202.91,276.982,205.068z"
					/>
				<path style="fill:#383838;" d="M276.845,205.919c-2.813,1.974-1.78,9.482,1.624,14.333c3.404,4.851,8.197,7.356,11.814,4.818
					c3.616-2.538,2.891-7.897-0.512-12.748C286.367,207.471,279.658,203.945,276.845,205.919z"/>
				<circle style="opacity:0.3;fill:#484747;" cx="280.331" cy="213.914" r="3.681"/>
			</g>
			<g>
				<path style="opacity:0.2;fill:#FFFFFF;" d="M358.873,242.885c-2.81,1.9-1.555,9.826,2.042,15.111
					c3.597,5.284,8.545,8.194,12.158,5.752c3.613-2.442,2.73-8.1-0.867-13.385C368.608,245.078,361.683,240.985,358.873,242.885z"/>
				<path style="fill:#383838;" d="M358.785,243.683c-2.482,1.742-1.212,8.878,2.106,13.608c3.319,4.73,7.804,7.304,10.996,5.065
					c3.191-2.239,2.296-7.333-1.022-12.063C367.546,245.563,361.267,241.941,358.785,243.683z"/>
				
					<ellipse transform="matrix(0.8186 -0.5744 0.5744 0.8186 -78.6627 253.7129)" style="opacity:0.3;fill:#484747;" cx="362.315" cy="251.385" rx="3.249" ry="3.59"/>
			</g>
			<g>
				<path style="opacity:0.2;fill:#FFFFFF;" d="M407.79,82.063c-3.02,2.049-2.092,9.974,1.403,15.125
					c3.495,5.151,8.512,7.845,12.394,5.212c3.883-2.634,3.233-8.292-0.261-13.443C417.831,83.806,410.809,80.015,407.79,82.063z"/>
				<path style="fill:#383838;" d="M407.659,82.872c-2.671,1.874-1.69,9.002,1.542,13.608s7.783,6.984,11.216,4.575
					c3.434-2.409,2.745-7.498-0.486-12.104C416.7,84.345,410.33,80.998,407.659,82.872z"/>
				<circle style="opacity:0.3;fill:#484747;" cx="410.969" cy="90.462" r="3.495"/>
			</g>
			<g>
				<path style="opacity:0.2;fill:#FFFFFF;" d="M406.187,181.085c-3.326,2.256-2.304,10.985,1.545,16.658
					c3.849,5.673,9.374,8.641,13.65,5.74s3.561-9.132-0.288-14.805C417.246,183.005,409.513,178.829,406.187,181.085z"/>
				<path style="fill:#383838;" d="M406.044,181.975c-2.941,2.064-1.861,9.915,1.698,14.987c3.559,5.072,8.572,7.692,12.353,5.039
					c3.782-2.653,3.023-8.258-0.536-13.331C416.001,183.598,408.985,179.911,406.044,181.975z"/>
				<circle style="opacity:0.3;fill:#484747;" cx="409.689" cy="190.335" r="3.85"/>
			</g>
			<path style="opacity:0.2;fill:#FEF8F9;" d="M188.229,207.758l-0.07,0.07l-1.54,1.049L59.01,298.407l-4.41,3.151l-6.93,4.829
				l-0.07,0.068l-7,4.971l-23.1,16.169c-0.21-0.279-0.49-0.559-0.7-0.769c-0.07-0.07-0.14-0.14-0.14-0.21
				c-0.07,0-0.07-0.07-0.07-0.07l-0.07-0.07c-0.07-0.07-0.07-0.07-0.14-0.14c-2.17-2.449-4.2-4.97-6.16-7.559
				c0-0.072-0.07-0.072-0.07-0.14l40.04-28.14l77.209-54.11l0.07-0.07l49.77-34.861v-0.068l0.14-0.07c0,0.07,0.07,0.07,0.07,0.07
				l0.07,0.068c0.63,0.42,1.19,0.841,1.82,1.261c0.21,0.21,0.49,0.35,0.7,0.489c0.14,0.072,0.21,0.14,0.35,0.212
				c0,0,0.07,0,0.07,0.068c0.14,0.072,0.21,0.14,0.35,0.21c0.49,0.35,0.56,0.35,2.8,1.68l2.17,1.191c0.35,0.21,0.7,0.35,1.05,0.559
				c0.07,0,0.14,0.07,0.21,0.07C187.459,207.408,187.879,207.548,188.229,207.758z"/>
			<path style="opacity:0.2;fill:#FEF8F9;" d="M461.087,16.379l-0.84,0.561l-23.17,16.24l-7.07,4.97h-0.07l-10.92,7.699l-4.69,3.292
				c0.14-1.33,0.21-2.661,0.28-4.061v-1.61c0-2.731-0.14-5.39-0.49-8.049v-0.072c0-0.068,0-0.14,0-0.14l40.88-28.699l0.21-0.14
				c0,0.07,0,0.07,0.07,0.14c1.05,1.68,2.1,3.36,3.08,5.04C459.267,13.159,460.177,14.769,461.087,16.379z"/>
		</g>
	</g>
	<path style="opacity:0.2;fill:#FEF8F9;" d="M467.667,5.25l-6.58,4.619l-1.33,0.979c-0.07-0.068-0.07-0.068-0.14-0.14l-1.26,0.841
		l-0.98,0.771h-0.07l-23.1,16.169l-7,4.97l-0.07,0.072l-8.54,5.949v0.21c0.21,2.03,0.42,4.06,0.42,6.159
		c0.07,1.191,0.07,2.381,0,3.572c0,1.119-0.07,2.169-0.14,3.22c0,0.28-0.07,0.559-0.07,0.839c-0.21,2.521-0.56,4.9-1.05,7.35
		c-1.47,7.35-4.06,14.28-7.7,20.649c-0.14,0.28-0.28,0.561-0.49,0.841c-0.98,1.82-2.17,3.57-3.36,5.25
		c-0.07,0.07-0.07,0.07-0.14,0.138c-8.12,11.271-19.6,19.951-32.969,24.572c1.54,2.869,2.94,5.879,4.06,9.03
		c2.87,7.839,4.34,16.379,4.13,25.269c-1.05,37.799-32.48,67.619-70.28,66.64c-8.19-0.21-15.96-1.82-23.17-4.689
		c-2.87-1.121-5.67-2.451-8.4-4.061c-5.04-2.731-9.66-6.159-13.79-10.079c-11.48,14.559-29.4,23.729-49.279,23.17
		c-6.16-0.14-12.11-1.191-17.57-3.081c-2.1-0.631-4.13-1.47-6.09-2.381c-0.21-0.068-0.42-0.208-0.63-0.279h-0.07
		c-0.63-0.28-1.19-0.631-1.82-0.911c-0.49-0.28-0.91-0.489-1.4-0.769c-0.49-0.28-1.05-0.561-1.61-0.911
		c-0.07-0.07-0.21-0.14-0.28-0.21c-0.07-0.07-0.21-0.14-0.28-0.14c-0.63-0.42-1.19-0.769-1.75-1.119
		c-0.35-0.21-0.63-0.35-0.91-0.561c-0.7-0.49-1.33-0.979-2.03-1.47c0,0-0.07-0.07-0.14-0.07l-1.68-1.54l-2.73-2.521l-0.14-0.14
		v-0.068c0.07,0,0.07,0.068,0.14,0.068l0.07,0.072c0.56,0.419,1.19,0.909,1.75,1.33c0.28,0.14,0.63,0.349,0.91,0.561
		c0.14,0.14,0.35,0.208,0.56,0.349c0.49,0.28,0.98,0.631,1.47,0.911c0.14,0.07,0.21,0.14,0.35,0.21c0.49,0.28,1.05,0.629,1.61,0.909
		c0.42,0.28,0.84,0.49,1.33,0.771c0.84,0.419,1.68,0.839,2.52,1.189c0.07,0,0.14,0.07,0.21,0.07c0.98,0.49,2.03,0.909,3.08,1.26
		c0.91,0.42,1.82,0.701,2.8,1.051c0.07,0,0.07,0,0.14,0.068h0.14c2.73,0.911,5.6,1.612,8.54,2.102c2.87,0.559,5.74,0.839,8.75,0.909
		c4.2,0.14,8.33-0.21,12.319-0.909c14.84-2.661,27.93-10.78,36.96-22.261c0.07,0.07,0.07,0.07,0.14,0.14
		c5.95,5.6,12.95,10.22,20.65,13.371c1.89,0.839,3.85,1.61,5.88,2.169c2.66,0.841,5.46,1.54,8.33,2.03
		c3.36,0.631,6.86,1.051,10.36,1.119c2.94,0.07,5.81,0,8.68-0.349c33.81-3.36,60.69-31.431,61.6-66.291
		c0.21-6.299-0.49-12.458-1.96-18.269c-1.4-5.67-3.5-11.061-6.23-16.03c22.68-7.909,39.97-27.369,44.66-51.45
		c0.49-2.449,0.84-4.9,1.05-7.349c0.14-1.33,0.21-2.661,0.28-4.061c0.07-3.29-0.07-6.58-0.49-9.731V35.14l41.09-28.771
		c0,0,0.07,0.07,0.07,0.14l0.21-0.14l1.4-0.979l7.7-5.39c0,0.07,0.07,0.07,0.07,0.14c0.77,1.049,1.47,2.239,2.24,3.36
		C466.967,4.061,467.317,4.689,467.667,5.25z"/>
</g>
</svg>